<?xml version="1.0" standalone="no"?>
<!DOCTYPE svg PUBLIC "-//W3C//DTD SVG 20010904//EN"
 "http://www.w3.org/TR/2001/REC-SVG-20010904/DTD/svg10.dtd">
<svg version="1.0" xmlns="http://www.w3.org/2000/svg"
 width="55.000000pt" height="311.000000pt" viewBox="0 0 55.000000 311.000000"
 preserveAspectRatio="xMidYMid meet">

<g transform="translate(0.000000,311.000000) scale(0.100000,-0.100000)"
fill="#000000" stroke="none">
<path d="M270 2650 c0 -323 0 -330 20 -330 20 0 20 7 20 330 0 323 0 330 -20
330 -20 0 -20 -7 -20 -330z"/>
<path d="M250 2225 c-8 -10 -31 -15 -70 -15 -34 0 -61 -5 -67 -12 -5 -7 -29
-61 -52 -120 l-43 -108 21 -43 c36 -74 93 -87 147 -33 44 44 44 77 -1 185 -19
45 -35 84 -35 87 0 10 87 3 98 -8 8 -8 12 -67 12 -199 l0 -188 -42 -3 c-40 -3
-43 -5 -46 -35 l-3 -33 110 0 c109 0 111 0 111 23 0 33 -19 47 -62 47 l-38 0
0 183 c0 208 3 217 74 217 43 0 43 -1 -5 -109 -35 -77 -36 -104 -6 -148 42
-62 105 -62 150 -1 29 39 24 90 -21 198 l-39 95 -61 3 c-37 2 -65 8 -72 17
-16 19 -44 19 -60 0z m40 -30 c0 -8 -4 -15 -10 -15 -5 0 -10 7 -10 15 0 8 5
15 10 15 6 0 10 -7 10 -15z m-115 -174 c6 -20 3 -21 -49 -21 -31 0 -56 4 -56
9 0 5 12 37 26 70 l27 61 22 -48 c13 -27 26 -59 30 -71z m280 67 c10 -29 20
-59 23 -65 3 -10 -11 -13 -51 -13 l-56 0 27 65 c15 36 29 65 33 65 3 0 13 -24
24 -52z m35 -133 c0 -23 -37 -55 -63 -55 -25 0 -49 22 -60 53 -6 15 1 17 58
17 51 0 65 -3 65 -15z m-307 -12 c-11 -33 -25 -43 -59 -43 -30 0 -64 27 -64
52 0 5 29 8 65 8 57 0 64 -2 58 -17z m135 -220 c-21 -2 -57 -2 -80 0 -24 2 -7
4 37 4 44 0 63 -2 43 -4z"/>
<path d="M270 780 c0 -773 0 -780 20 -780 20 0 20 7 20 780 0 773 0 780 -20
780 -20 0 -20 -7 -20 -780z"/>
<path d="M330 680 c0 -6 40 -10 100 -10 60 0 100 4 100 10 0 6 -40 10 -100 10
-60 0 -100 -4 -100 -10z"/>
<path d="M330 621 c0 -7 37 -11 102 -11 56 0 99 2 97 4 -2 2 -48 6 -101 10
-67 5 -98 4 -98 -3z"/>
<path d="M410 550 c-25 -25 -26 -72 -2 -93 28 -25 87 -22 106 5 22 32 20 55
-9 83 -29 30 -68 32 -95 5z m81 -10 c21 -12 25 -50 7 -68 -20 -20 -76 -15 -88
8 -24 45 31 86 81 60z"/>
<path d="M390 406 c0 -8 5 -18 10 -21 6 -3 10 3 10 14 0 12 -4 21 -10 21 -5 0
-10 -6 -10 -14z"/>
<path d="M403 373 c-32 -13 -7 -23 57 -23 40 0 70 4 70 10 0 6 -20 10 -44 10
-24 0 -50 2 -58 4 -7 3 -19 2 -25 -1z"/>
<path d="M397 313 c-4 -3 -7 -18 -7 -33 0 -58 84 -86 122 -41 20 25 24 56 8
66 -6 3 -10 -4 -10 -17 0 -33 -18 -48 -57 -48 -37 0 -55 24 -46 58 5 22 2 28
-10 15z"/>
<path d="M453 155 c-9 -19 -22 -35 -29 -35 -15 0 -25 25 -18 45 4 8 1 15 -5
15 -15 0 -14 -53 1 -68 21 -21 44 -13 61 24 21 42 42 40 42 -4 0 -18 4 -30 10
-28 14 5 9 67 -7 77 -24 16 -38 9 -55 -26z"/>
</g>
</svg>
