<?xml version="1.0" encoding="UTF-8"?>
<!DOCTYPE svg PUBLIC "-//W3C//DTD SVG 1.1//EN" "http://www.w3.org/Graphics/SVG/1.1/DTD/svg11.dtd">
<svg xmlns="http://www.w3.org/2000/svg" version="1.1" width="1419px" height="363px" style="shape-rendering:geometricPrecision; text-rendering:geometricPrecision; image-rendering:optimizeQuality; fill-rule:evenodd; clip-rule:evenodd" xmlns:xlink="http://www.w3.org/1999/xlink">
<g><path style="opacity:0.955" fill="#cfc59e" d="M 565.5,60.5 C 587.514,60.3813 609.514,60.8813 631.5,62C 672.751,64.7078 699.251,85.8745 711,125.5C 719.577,166.786 707.077,199.953 673.5,225C 664.585,230.527 654.918,233.861 644.5,235C 626.833,235.333 609.167,235.667 591.5,236C 634.77,263.606 677.77,291.606 720.5,320C 718.754,320.471 717.087,321.138 715.5,322C 704.152,322.256 692.818,322.756 681.5,323.5C 673.689,323.156 666.023,321.989 658.5,320C 625.968,298.636 593.301,277.47 560.5,256.5C 559.667,277.826 559.167,299.159 559,320.5C 558.5,321 558,321.5 557.5,322C 547.5,322.667 537.5,322.667 527.5,322C 526.667,321.167 525.833,320.333 525,319.5C 524.333,281.5 524.333,243.5 525,205.5C 525.833,204.667 526.667,203.833 527.5,203C 552.505,202.348 577.505,202.514 602.5,203.5C 616.948,203.535 631.281,202.368 645.5,200C 664.578,193.585 675.745,180.418 679,160.5C 682.643,139.224 676.81,121.058 661.5,106C 650.27,98.7748 637.936,95.4415 624.5,96C 603.67,95.8589 582.836,96.0256 562,96.5C 550.407,96.6465 538.907,96.1465 527.5,95C 527,94.5 526.5,94 526,93.5C 525.333,83.8333 525.333,74.1667 526,64.5C 526.5,64 527,63.5 527.5,63C 540.285,61.9132 552.951,61.0798 565.5,60.5 Z"/></g>
<g><path style="opacity:0.956" fill="#cfc59e" d="M 374.5,61.5 C 428.92,62.1148 469.753,85.7814 497,132.5C 516.541,172.628 516.208,212.628 496,252.5C 473.702,289.733 441.202,312.233 398.5,320C 392.5,320.667 386.5,320.667 380.5,320C 379.069,319.535 377.903,318.701 377,317.5C 376.333,307.833 376.333,298.167 377,288.5C 377.5,288 378,287.5 378.5,287C 438.349,283.148 471.349,251.482 477.5,192C 474.08,139.586 446.746,107.92 395.5,97C 344.383,93.6256 309.883,115.792 292,163.5C 289.107,174.309 287.44,185.309 287,196.5C 286.5,197 286,197.5 285.5,198C 275.5,198.667 265.5,198.667 255.5,198C 252.895,151.204 270.562,113.871 308.5,86C 328.506,72.1683 350.506,64.0016 374.5,61.5 Z"/></g>
<g><path style="opacity:0.953" fill="#cfc59e" d="M 731.5,61.5 C 765.835,61.3333 800.168,61.5 834.5,62C 869.381,63.1828 894.547,79.3494 910,110.5C 923.35,144.004 920.017,175.671 900,205.5C 884.259,224.288 864.092,234.454 839.5,236C 814.146,236.04 788.813,236.206 763.5,236.5C 763.667,264.502 763.5,292.502 763,320.5C 762.5,321 762,321.5 761.5,322C 751.5,322.667 741.5,322.667 731.5,322C 731,321.5 730.5,321 730,320.5C 729.333,281.833 729.333,243.167 730,204.5C 730.5,204 731,203.5 731.5,203C 738,202.833 744.5,202.667 751,202.5C 780.514,203.945 810.014,203.778 839.5,202C 866.54,198.292 881.373,182.792 884,155.5C 885.406,138.781 881.072,123.781 871,110.5C 859.93,100.226 846.764,95.3925 831.5,96C 798.163,95.6472 764.829,95.6472 731.5,96C 731,95.5 730.5,95 730,94.5C 729.333,84.1667 729.333,73.8333 730,63.5C 730.717,62.9558 731.217,62.2891 731.5,61.5 Z"/></g>
<g><path style="opacity:0.953" fill="#cfc59e" d="M 937.5,61.5 C 947.487,62.1299 957.487,62.6299 967.5,63C 968,63.5 968.5,64 969,64.5C 969.432,119.507 970.098,174.507 971,229.5C 976.221,256.723 992.054,274.556 1018.5,283C 1049,291.276 1074.83,283.776 1096,260.5C 1104.44,248.176 1109.11,234.509 1110,219.5C 1110.33,211.833 1110.67,204.167 1111,196.5C 1112.3,195.02 1113.97,194.354 1116,194.5C 1124.82,195.231 1133.65,195.731 1142.5,196C 1149.89,249.214 1129.56,287.881 1081.5,312C 1045.75,325.779 1011.75,322.446 979.5,302C 953.166,282.178 938.666,255.678 936,222.5C 935.796,187.99 935.296,153.49 934.5,119C 935.26,100.511 935.76,82.0107 936,63.5C 936.717,62.9558 937.217,62.2891 937.5,61.5 Z"/></g>
<g><path style="opacity:0.957" fill="#cfc59e" d="M 135.5,62.5 C 177.628,59.9153 212.962,73.9153 241.5,104.5C 234.484,112.35 226.984,119.683 219,126.5C 210.167,120.333 201.333,114.167 192.5,108C 163.571,93.339 134.238,92.6723 104.5,106C 71.1478,124.662 53.8145,153.328 52.5,192C 53.4151,225.507 67.4151,251.84 94.5,271C 111.394,279.964 129.394,285.297 148.5,287C 149,287.5 149.5,288 150,288.5C 150.667,298.5 150.667,308.5 150,318.5C 149.5,319 149,319.5 148.5,320C 109.754,320.709 77.5875,306.543 52,277.5C 12.9065,229.952 7.90647,178.952 37,124.5C 60.3246,88.753 93.1579,68.0863 135.5,62.5 Z"/></g>
<g><path style="opacity:0.954" fill="#cfc59e" d="M 1231.5,62.5 C 1269.5,62.3333 1307.5,62.5 1345.5,63C 1346,63.5 1346.5,64 1347,64.5C 1347.67,74.5 1347.67,84.5 1347,94.5C 1346.5,95 1346,95.5 1345.5,96C 1304.8,96.0407 1264.14,96.7074 1223.5,98C 1208.01,101.491 1198.51,110.991 1195,126.5C 1191.46,150.987 1201.96,165.487 1226.5,170C 1245.5,170.333 1264.5,170.667 1283.5,171C 1303.43,172.883 1319.6,181.717 1332,197.5C 1350.76,224.75 1352.43,253.084 1337,282.5C 1320.14,310.012 1295.64,322.845 1263.5,321C 1263,320.5 1262.5,320 1262,319.5C 1261.33,309.5 1261.33,299.5 1262,289.5C 1262.5,289 1263,288.5 1263.5,288C 1295.6,291.718 1312.6,277.551 1314.5,245.5C 1312.2,215.476 1295.87,201.476 1265.5,203.5C 1247.38,205.381 1229.38,204.714 1211.5,201.5C 1185.05,193.554 1168.22,176.221 1161,149.5C 1156.72,112.217 1171.22,85.0505 1204.5,68C 1213.44,65.1786 1222.44,63.3453 1231.5,62.5 Z"/></g>
</svg>
