<?xml version="1.0" standalone="no"?>
<!DOCTYPE svg PUBLIC "-//W3C//DTD SVG 20010904//EN"
 "http://www.w3.org/TR/2001/REC-SVG-20010904/DTD/svg10.dtd">
<svg version="1.0" xmlns="http://www.w3.org/2000/svg"
 width="1419.000000pt" height="363.000000pt" viewBox="0 0 1419.000000 363.000000"
 preserveAspectRatio="xMidYMid meet">

<g transform="translate(0.000000,363.000000) scale(0.100000,-0.100000)"
fill="#000000" stroke="none">
<path d="M5458 2990 c-91 -3 -168 -7 -171 -10 -3 -3 -6 -70 -8 -150 l-4 -145
540 -1 c396 0 556 -4 600 -13 194 -41 338 -184 390 -386 20 -77 19 -230 -1
-309 -51 -198 -196 -337 -400 -382 -70 -16 -136 -17 -606 -15 l-528 2 0 -581
0 -580 155 0 155 0 0 335 c0 184 4 335 9 335 11 0 259 -159 631 -405 173 -114
335 -219 360 -232 28 -14 76 -27 125 -33 84 -9 475 -2 475 10 0 3 -294 195
-654 426 -360 230 -652 421 -649 424 2 3 145 7 316 11 307 5 313 6 392 33 111
38 209 102 297 194 104 109 173 233 214 387 25 94 30 312 9 415 -67 332 -286
566 -598 640 -144 34 -561 46 -1049 30z"/>
<path d="M7668 2992 l-348 -2 0 -156 0 -155 458 6 c618 9 722 -1 848 -80 150
-96 236 -262 237 -460 1 -113 -13 -183 -54 -271 -61 -129 -167 -224 -296 -264
-109 -34 -298 -42 -765 -34 l-428 7 0 -582 0 -581 150 0 150 0 0 424 c0 329 3
427 13 433 6 4 194 8 417 8 357 0 415 2 485 18 315 72 520 272 602 585 20 78
25 122 26 227 1 72 -5 157 -12 190 -53 253 -173 437 -363 558 -186 119 -325
135 -1120 129z"/>
<path d="M3646 2974 c-122 -19 -233 -54 -354 -113 -356 -175 -586 -447 -682
-809 -24 -89 -50 -263 -50 -339 l0 -53 150 0 150 0 0 43 c0 77 28 231 59 320
53 156 136 284 260 398 100 94 214 163 338 205 120 41 199 54 323 54 252 0
481 -99 670 -289 185 -185 282 -419 282 -681 1 -352 -184 -668 -497 -845 -104
-59 -169 -79 -354 -106 l-152 -23 3 -145 3 -146 125 1 c139 2 222 19 365 77
211 87 435 260 575 445 56 74 137 232 170 332 86 257 91 536 14 782 -186 594
-800 985 -1398 892z"/>
<path d="M9377 2779 c-10 -345 3 -1349 18 -1459 61 -426 335 -740 740 -846 85
-23 123 -27 250 -28 159 -1 215 7 350 51 261 84 469 261 590 503 70 140 96
257 102 478 l6 172 -75 0 c-41 0 -109 3 -151 6 l-77 7 0 -89 c0 -183 -29 -333
-88 -454 -28 -58 -56 -94 -122 -160 -96 -95 -164 -139 -272 -177 -106 -38
-295 -44 -423 -14 -143 34 -225 80 -331 186 -75 74 -99 105 -133 175 -78 161
-76 133 -76 1037 0 441 -2 803 -5 806 -3 2 -71 7 -151 11 l-146 6 -6 -211z"/>
<path d="M1295 2969 c-478 -70 -878 -407 -1024 -864 -45 -139 -61 -242 -61
-390 0 -346 131 -657 385 -910 226 -226 485 -346 788 -362 l107 -6 0 151 0
150 -52 7 c-98 12 -263 53 -345 84 -363 140 -611 543 -578 941 39 473 372 833
833 900 102 15 285 8 367 -14 94 -25 230 -98 355 -191 63 -46 118 -85 121 -85
10 0 130 110 175 160 l37 41 -73 67 c-155 142 -312 230 -510 286 -150 42 -375
57 -525 35z"/>
<path d="M12233 2969 c-298 -35 -533 -257 -598 -567 -59 -275 68 -557 314
-702 142 -83 273 -106 563 -97 236 8 338 -2 425 -43 168 -77 261 -283 220
-482 -22 -109 -69 -198 -133 -257 -70 -65 -122 -82 -266 -88 l-118 -6 0 -148
0 -149 88 0 c320 0 598 216 702 545 30 96 38 272 16 375 -40 186 -192 395
-346 475 -121 62 -229 77 -545 76 -156 -1 -282 3 -315 10 -77 16 -138 49 -208
114 -80 73 -105 132 -104 240 1 165 89 309 227 370 91 41 164 45 749 45 l556
0 0 150 0 150 -577 -1 c-318 -1 -611 -5 -650 -10z"/>
</g>
</svg>
