<?xml version="1.0" standalone="no"?>
<!DOCTYPE svg PUBLIC "-//W3C//DTD SVG 20010904//EN"
 "http://www.w3.org/TR/2001/REC-SVG-20010904/DTD/svg10.dtd">
<svg version="1.0" xmlns="http://www.w3.org/2000/svg"
 width="1920.000000pt" height="1080.000000pt" viewBox="0 0 1920.000000 1080.000000"
 preserveAspectRatio="xMidYMid meet">

<g transform="translate(0.000000,1080.000000) scale(0.100000,-0.100000)"
fill="#000000" stroke="none">
<path d="M8780 9320 c-837 -56 -1620 -401 -2150 -946 -266 -274 -382 -437
-547 -768 -112 -224 -187 -469 -234 -761 -31 -198 -31 -520 1 -715 73 -451
215 -808 464 -1165 227 -325 618 -677 977 -877 405 -227 795 -353 1294 -419
228 -30 603 -30 832 0 400 53 685 132 1029 287 222 100 492 260 601 357 22 20
23 20 70 -1 216 -91 504 -144 793 -145 526 -1 1007 165 1404 486 56 44 120 96
144 115 52 41 263 302 337 416 59 92 155 279 203 396 164 397 201 886 102
1340 -68 307 -221 633 -409 870 -92 116 -287 314 -396 402 -235 191 -568 350
-876 418 -182 41 -290 52 -489 53 -248 0 -402 -21 -647 -90 l-92 -26 -98 75
c-252 192 -390 275 -644 390 -348 158 -629 237 -1027 288 -176 22 -470 31
-642 20z m635 -199 c448 -59 828 -184 1213 -399 110 -61 362 -235 362 -250 0
-4 -39 -27 -86 -50 -165 -82 -415 -259 -500 -353 -12 -13 -47 -48 -78 -77 -76
-72 -212 -239 -279 -344 -61 -94 -157 -280 -205 -398 -164 -397 -201 -886
-102 -1340 70 -317 229 -651 427 -891 46 -57 105 -130 131 -162 78 -98 359
-312 571 -435 31 -18 -209 -167 -458 -284 -328 -155 -621 -240 -1021 -294
-177 -24 -585 -24 -770 0 -277 35 -555 101 -760 178 -526 199 -921 472 -1271
878 -232 269 -436 674 -519 1029 -53 227 -64 326 -63 561 0 236 16 365 73 590
87 345 286 731 509 990 345 401 737 673 1253 870 273 105 643 184 953 204 134
8 475 -4 620 -23z m2800 -655 c245 -39 429 -98 635 -201 100 -49 270 -157 308
-194 20 -20 79 -72 130 -116 51 -44 134 -129 185 -190 50 -60 99 -117 108
-125 30 -27 121 -182 190 -325 276 -571 276 -1229 0 -1800 -213 -441 -450
-692 -873 -924 -382 -210 -852 -293 -1273 -227 -157 25 -336 69 -378 93 -8 5
207 231 275 291 l28 24 87 -19 c127 -26 512 -26 628 0 145 33 248 68 365 123
135 64 186 96 299 182 680 525 849 1494 390 2234 -160 259 -391 467 -666 600
-242 116 -380 149 -663 155 -209 5 -221 4 -440 -41 -186 -39 -441 -169 -622
-318 -645 -532 -795 -1479 -347 -2200 159 -258 391 -466 664 -599 l120 -58
-105 -101 c-58 -56 -129 -122 -158 -147 l-53 -46 -51 24 c-108 50 -325 191
-425 276 -91 77 -253 249 -253 268 0 4 -17 28 -39 54 -100 121 -254 415 -315
605 -138 424 -138 873 0 1301 41 128 147 352 227 480 71 114 247 314 368 419
52 45 110 96 129 114 19 17 73 55 120 84 47 28 92 58 102 65 21 18 100 62 205
113 115 57 389 118 638 144 77 8 371 -4 460 -18z m-145 -547 c315 -30 581
-138 817 -331 39 -32 81 -71 93 -86 12 -15 47 -54 78 -87 117 -122 177 -213
253 -386 77 -174 110 -306 131 -512 35 -361 -88 -790 -307 -1067 -29 -36 -57
-74 -63 -86 -16 -30 -200 -189 -290 -252 -87 -60 -241 -137 -352 -177 -150
-53 -420 -93 -550 -81 -85 9 -211 26 -228 31 -8 3 6 31 42 83 30 43 86 132
123 197 l69 120 149 6 c157 7 233 22 344 66 604 240 873 949 579 1528 -125
246 -318 421 -583 528 -103 42 -224 66 -365 73 -109 5 -140 2 -241 -19 -190
-41 -334 -108 -480 -225 -297 -238 -453 -641 -395 -1016 66 -415 324 -733 716
-878 47 -18 87 -33 89 -35 2 -2 -3 -11 -11 -20 -8 -10 -30 -45 -48 -78 -18
-33 -67 -108 -108 -168 -86 -124 -66 -119 -218 -46 -218 106 -373 229 -525
420 -94 117 -138 191 -200 330 -186 420 -182 890 11 1304 85 181 163 290 325
450 142 140 215 188 535 352 25 12 81 32 125 43 152 39 239 42 485 19z m-25
-512 c69 2 284 -61 388 -113 267 -136 462 -384 534 -684 27 -113 25 -357 -4
-467 -58 -216 -162 -386 -330 -532 -165 -145 -417 -241 -634 -241 l-69 0 25
50 c38 76 93 231 129 370 l33 125 61 22 c324 116 416 541 170 787 -82 81 -155
116 -268 128 -96 10 -153 0 -240 -40 -73 -34 -168 -130 -207 -209 -123 -248
-9 -563 238 -659 24 -9 48 -20 52 -24 18 -16 -78 -318 -144 -453 -39 -79 -34
-78 -166 -28 -309 120 -540 388 -620 721 -27 113 -25 357 4 467 27 100 72 208
120 288 80 132 221 272 351 346 95 55 260 117 342 131 36 6 83 14 105 18 22 4
54 5 70 2 17 -3 44 -6 60 -5z m60 -692 c73 -20 143 -63 195 -122 52 -59 64
-99 57 -190 -14 -179 -143 -319 -308 -331 -133 -9 -234 48 -299 170 -31 56
-34 71 -34 138 1 152 68 275 179 326 59 28 125 31 210 9z"/>
</g>
</svg>
